<svg width="1200" height="630" viewBox="0 0 1200 630" fill="none" xmlns="http://www.w3.org/2000/svg">
<rect width="1200" height="630" fill="white"/>
<circle cx="323.5" cy="314.5" r="112.5" fill="#E6E8F3"/>
<path d="M358.021 272.89C349.683 281.632 341.792 288.004 332.608 292.293C323.415 296.586 313.344 298.598 300.919 299.247L300.919 285.508C312.396 284.908 321.674 283.168 329.041 279.728C336.416 276.284 341.676 272.824 349.428 264.695L358.021 272.89Z" fill="#576EDF"/>
<path d="M349.038 265.199L366.913 245.2L332.608 388.705H300.919L349.038 265.199Z" fill="#576EDF"/>
<ellipse cx="300.921" cy="275.354" rx="20.6214" ry="23.902" fill="#3A4E9E"/>
<path d="M530 353.1C524.2 353.1 519.2 352.167 515 350.3C510.867 348.367 507.067 345.467 503.6 341.6L513.8 331.5C516.067 334.1 518.567 336.133 521.3 337.6C524.1 339 527.333 339.7 531 339.7C534.333 339.7 536.9 339.1 538.7 337.9C540.567 336.7 541.5 335.033 541.5 332.9C541.5 330.967 540.9 329.4 539.7 328.2C538.5 327 536.9 325.967 534.9 325.1C532.967 324.233 530.8 323.4 528.4 322.6C526.067 321.8 523.733 320.9 521.4 319.9C519.067 318.833 516.9 317.533 514.9 316C512.967 314.4 511.4 312.433 510.2 310.1C509 307.7 508.4 304.7 508.4 301.1C508.4 296.767 509.433 293.033 511.5 289.9C513.633 286.767 516.567 284.4 520.3 282.8C524.033 281.133 528.333 280.3 533.2 280.3C538.133 280.3 542.633 281.167 546.7 282.9C550.833 284.633 554.233 287 556.9 290L546.7 300.1C544.567 297.9 542.4 296.267 540.2 295.2C538.067 294.133 535.633 293.6 532.9 293.6C530.167 293.6 528 294.133 526.4 295.2C524.8 296.2 524 297.667 524 299.6C524 301.4 524.6 302.867 525.8 304C527 305.067 528.567 306 530.5 306.8C532.5 307.6 534.667 308.4 537 309.2C539.4 310 541.767 310.933 544.1 312C546.433 313.067 548.567 314.433 550.5 316.1C552.5 317.7 554.1 319.767 555.3 322.3C556.5 324.767 557.1 327.833 557.1 331.5C557.1 338.233 554.7 343.533 549.9 347.4C545.1 351.2 538.467 353.1 530 353.1ZM579.627 352.2L559.627 303.4H576.127L588.827 342.1H582.727L595.727 303.4H612.227L591.427 352.2H579.627ZM567.127 372.5L581.727 341L591.427 352.2L582.827 372.5H567.127ZM648.973 352V324.3C648.973 321.767 648.173 319.733 646.573 318.2C645.039 316.6 643.073 315.8 640.673 315.8C639.006 315.8 637.539 316.167 636.273 316.9C635.006 317.567 634.006 318.567 633.273 319.9C632.539 321.167 632.173 322.633 632.173 324.3L626.273 321.4C626.273 317.6 627.106 314.267 628.773 311.4C630.439 308.533 632.739 306.333 635.673 304.8C638.673 303.2 642.039 302.4 645.773 302.4C649.373 302.4 652.539 303.267 655.273 305C658.073 306.667 660.273 308.9 661.873 311.7C663.473 314.5 664.273 317.567 664.273 320.9V352H648.973ZM616.873 352V303.4H632.173V352H616.873ZM697.599 353.1C692.599 353.1 688.066 352 683.999 349.8C679.933 347.6 676.733 344.567 674.399 340.7C672.066 336.833 670.899 332.5 670.899 327.7C670.899 322.833 672.066 318.5 674.399 314.7C676.799 310.833 680.033 307.8 684.099 305.6C688.166 303.4 692.733 302.3 697.799 302.3C701.599 302.3 705.066 302.967 708.199 304.3C711.399 305.567 714.233 307.5 716.699 310.1L706.899 319.9C705.766 318.633 704.433 317.7 702.899 317.1C701.433 316.5 699.733 316.2 697.799 316.2C695.599 316.2 693.633 316.7 691.899 317.7C690.233 318.633 688.899 319.967 687.899 321.7C686.966 323.367 686.499 325.333 686.499 327.6C686.499 329.867 686.966 331.867 687.899 333.6C688.899 335.333 690.266 336.7 691.999 337.7C693.733 338.7 695.666 339.2 697.799 339.2C699.799 339.2 701.566 338.867 703.099 338.2C704.699 337.467 706.066 336.467 707.199 335.2L716.899 345C714.366 347.667 711.499 349.7 708.299 351.1C705.099 352.433 701.533 353.1 697.599 353.1ZM745.937 353.1C740.937 353.1 736.403 352 732.337 349.8C728.337 347.533 725.17 344.467 722.837 340.6C720.503 336.733 719.337 332.4 719.337 327.6C719.337 322.8 720.503 318.5 722.837 314.7C725.17 310.9 728.337 307.9 732.337 305.7C736.337 303.433 740.87 302.3 745.937 302.3C751.003 302.3 755.537 303.4 759.537 305.6C763.537 307.8 766.703 310.833 769.037 314.7C771.37 318.5 772.537 322.8 772.537 327.6C772.537 332.4 771.37 336.733 769.037 340.6C766.703 344.467 763.537 347.533 759.537 349.8C755.537 352 751.003 353.1 745.937 353.1ZM745.937 339.2C748.137 339.2 750.07 338.733 751.737 337.8C753.403 336.8 754.67 335.433 755.537 333.7C756.47 331.9 756.937 329.867 756.937 327.6C756.937 325.333 756.47 323.367 755.537 321.7C754.603 319.967 753.303 318.633 751.637 317.7C750.037 316.7 748.137 316.2 745.937 316.2C743.803 316.2 741.903 316.7 740.237 317.7C738.57 318.633 737.27 319.967 736.337 321.7C735.403 323.433 734.937 325.433 734.937 327.7C734.937 329.9 735.403 331.9 736.337 333.7C737.27 335.433 738.57 336.8 740.237 337.8C741.903 338.733 743.803 339.2 745.937 339.2ZM808.154 353C804.887 353 801.887 352.367 799.154 351.1C796.421 349.833 794.187 348.1 792.454 345.9C790.721 343.633 789.721 341.067 789.454 338.2V317.7C789.721 314.833 790.721 312.233 792.454 309.9C794.187 307.567 796.421 305.733 799.154 304.4C801.887 303.067 804.887 302.4 808.154 302.4C812.754 302.4 816.821 303.5 820.354 305.7C823.954 307.9 826.754 310.9 828.754 314.7C830.821 318.5 831.854 322.833 831.854 327.7C831.854 332.567 830.821 336.9 828.754 340.7C826.754 344.5 823.954 347.5 820.354 349.7C816.821 351.9 812.754 353 808.154 353ZM780.154 372.5V303.4H795.454V315.9L792.954 327.7L795.254 339.5V372.5H780.154ZM805.354 339.2C807.554 339.2 809.454 338.7 811.054 337.7C812.721 336.7 814.021 335.333 814.954 333.6C815.887 331.867 816.354 329.9 816.354 327.7C816.354 325.433 815.887 323.433 814.954 321.7C814.021 319.967 812.721 318.633 811.054 317.7C809.454 316.7 807.587 316.2 805.454 316.2C803.321 316.2 801.421 316.7 799.754 317.7C798.154 318.633 796.887 319.967 795.954 321.7C795.021 323.433 794.554 325.433 794.554 327.7C794.554 329.9 794.987 331.867 795.854 333.6C796.787 335.333 798.087 336.7 799.754 337.7C801.421 338.7 803.287 339.2 805.354 339.2ZM859.927 353C855.46 353 851.46 351.9 847.927 349.7C844.46 347.5 841.693 344.5 839.627 340.7C837.627 336.9 836.627 332.567 836.627 327.7C836.627 322.833 837.627 318.5 839.627 314.7C841.693 310.9 844.46 307.9 847.927 305.7C851.46 303.5 855.46 302.4 859.927 302.4C863.193 302.4 866.127 303.033 868.727 304.3C871.393 305.567 873.56 307.333 875.227 309.6C876.893 311.8 877.827 314.333 878.027 317.2V338.2C877.827 341.067 876.893 343.633 875.227 345.9C873.627 348.1 871.493 349.833 868.827 351.1C866.16 352.367 863.193 353 859.927 353ZM863.027 339.2C866.293 339.2 868.927 338.133 870.927 336C872.927 333.8 873.927 331.033 873.927 327.7C873.927 325.433 873.46 323.433 872.527 321.7C871.66 319.967 870.393 318.633 868.727 317.7C867.127 316.7 865.26 316.2 863.127 316.2C860.993 316.2 859.093 316.7 857.427 317.7C855.827 318.633 854.527 319.967 853.527 321.7C852.593 323.433 852.127 325.433 852.127 327.7C852.127 329.9 852.593 331.867 853.527 333.6C854.46 335.333 855.76 336.7 857.427 337.7C859.093 338.7 860.96 339.2 863.027 339.2ZM873.327 352V338.9L875.627 327.1L873.327 315.3V303.4H888.327V352H873.327ZM905.999 352V283.3H921.299V352H905.999ZM894.999 316.4V303.4H932.299V316.4H894.999ZM962.064 353.1C956.797 353.1 952.097 352.033 947.964 349.9C943.897 347.7 940.697 344.667 938.364 340.8C936.031 336.933 934.864 332.567 934.864 327.7C934.864 322.833 935.997 318.5 938.264 314.7C940.597 310.833 943.731 307.8 947.664 305.6C951.597 303.4 956.031 302.3 960.964 302.3C965.764 302.3 969.997 303.333 973.664 305.4C977.331 307.467 980.197 310.333 982.264 314C984.397 317.667 985.464 321.867 985.464 326.6C985.464 327.467 985.397 328.4 985.264 329.4C985.197 330.333 985.031 331.433 984.764 332.7L942.864 332.8V322.3L978.264 322.2L971.664 326.6C971.597 323.8 971.164 321.5 970.364 319.7C969.564 317.833 968.364 316.433 966.764 315.5C965.231 314.5 963.331 314 961.064 314C958.664 314 956.564 314.567 954.764 315.7C953.031 316.767 951.664 318.3 950.664 320.3C949.731 322.3 949.264 324.733 949.264 327.6C949.264 330.467 949.764 332.933 950.764 335C951.831 337 953.297 338.567 955.164 339.7C957.097 340.767 959.364 341.3 961.964 341.3C964.364 341.3 966.531 340.9 968.464 340.1C970.397 339.233 972.097 337.967 973.564 336.3L981.964 344.7C979.564 347.5 976.664 349.6 973.264 351C969.864 352.4 966.131 353.1 962.064 353.1Z" fill="black"/>
</svg>
